<?xml version="1.0" encoding="UTF-8" standalone="no"?>
<svg
   xmlns:dc="http://purl.org/dc/elements/1.1/"
   xmlns:cc="http://creativecommons.org/ns#"
   xmlns:rdf="http://www.w3.org/1999/02/22-rdf-syntax-ns#"
   xmlns:svg="http://www.w3.org/2000/svg"
   xmlns="http://www.w3.org/2000/svg"
   xmlns:sodipodi="http://sodipodi.sourceforge.net/DTD/sodipodi-0.dtd"
   xmlns:inkscape="http://www.inkscape.org/namespaces/inkscape"
   inkscape:version="1.0 (4035a4fb49, 2020-05-01)"
   height="1000"
   width="1000"
   sodipodi:docname="discord_logo.svg"
   version="1.1"
   viewBox="0 0 1000 1000"
   id="Layer_1">
  <metadata
     id="metadata13">
    <rdf:RDF>
      <cc:Work
         rdf:about="">
        <dc:format>image/svg+xml</dc:format>
        <dc:type
           rdf:resource="http://purl.org/dc/dcmitype/StillImage" />
        <dc:title></dc:title>
      </cc:Work>
    </rdf:RDF>
  </metadata>
  <defs
     id="defs11" />
  <sodipodi:namedview
     inkscape:current-layer="Layer_1"
     inkscape:window-maximized="1"
     inkscape:window-y="-8"
     inkscape:window-x="-8"
     inkscape:cy="291.49666"
     inkscape:cx="565.965"
     inkscape:zoom="0.46354167"
     showgrid="false"
     id="namedview9"
     inkscape:window-height="1057"
     inkscape:window-width="1858"
     inkscape:pageshadow="2"
     inkscape:pageopacity="0"
     guidetolerance="10"
     gridtolerance="10"
     objecttolerance="10"
     borderopacity="1"
     bordercolor="#666666"
     pagecolor="#ffffff" />
  <style
     id="style2">.st0{fill:#FFFFFF;}</style>
  <path
     style="fill:#000000;stroke-width:5.00001"
     id="path4"
     d="m 409.49999,419.50001 c -28.49997,0 -51.00001,25.00001 -51.00001,55.49998 0,30.49998 23.00003,55.49998 51.00001,55.49998 28.50001,0 51,-25 51,-55.49998 0.50003,-30.49997 -22.49999,-55.49998 -51,-55.49998 z m 182.50001,0 c -28.50003,0 -50.99999,25.00001 -50.99999,55.49998 0,30.49998 23.00001,55.49998 50.99999,55.49998 28.50003,0 50.99999,-25 50.99999,-55.49998 0,-30.49997 -22.49996,-55.49998 -50.99999,-55.49998 z"
     class="st0" />
  <path
     style="fill:#000000;stroke-width:5.00001"
     id="path6"
     d="M 835.00001,0 H 165 C 108.5,0 62.5,46.000002 62.5,103 v 675.99999 c 0,57.00001 46,103 102.5,103 h 567.00001 l -26.49999,-92.50003 64,59.50001 L 830,905.00001 937.5,1000 V 103 C 937.5,46.000002 891.50001,0 835.00001,0 Z m -193,653.00002 c 0,0 -18.00001,-21.50008 -33.00002,-40.50003 C 674.50002,593.99997 699.5,552.99998 699.5,552.99998 c -20.49998,13.49998 -39.99998,22.99997 -57.49999,29.5 -25,10.49997 -48.99999,17.5 -72.50002,21.50004 C 521.50001,612.99996 477.5,610.5 440.00001,603.49996 411.5,598 387,589.99994 366.5,581.99997 c -11.5,-4.49999 -24,-10 -36.49999,-16.99999 -1.5,-0.99997 -3,-1.50003 -4.5,-2.5 C 324.5,561.99997 324.00001,561.5 323.5,561 c -9,-5.00005 -14,-8.50003 -14,-8.50003 0,0 24,40.00001 87.50003,59.00005 -15,18.99995 -33.50003,41.5 -33.50003,41.5 C 253,649.49995 211,576.99997 211,576.99997 211,416.00001 283,285.5 283,285.5 c 72,-54 140.50003,-52.49999 140.50003,-52.49999 l 4.99996,6 c -89.99998,25.99999 -131.49998,65.5 -131.49998,65.5 0,0 10.99999,-6 29.49999,-14.50001 53.50003,-23.5 96.00002,-30 113.50001,-31.49999 C 443.00002,258 445.5,257.5 448.50001,257.5 c 30.50001,-4 64.99998,-4.99999 100.99997,-0.99999 47.50002,5.49999 98.50005,19.5 150.50006,48 0,0 -39.50004,-37.50001 -124.50003,-63.50001 L 582.5,233.00001 c 0,0 68.50004,-1.50001 140.49998,52.49999 0,0 72.00001,130.50001 72.00001,291.49997 0,0 -42.49997,72.49998 -152.99998,76.00005 z"
     class="st0" />
  <g
     style="display:none"
     inkscape:label="Background"
     id="layer1"
     inkscape:groupmode="layer" />
</svg>
